<?xml version="1.0" encoding="UTF-8"?><svg id="Layer_2" xmlns="http://www.w3.org/2000/svg" viewBox="0 0 551.1 638.09"><defs><style>.cls-1{fill:#ef8b8b;}.cls-2{fill:#fff;}.cls-3{fill:#999;}.cls-4{fill:#cce6ff;}.cls-5{fill:#bf5a5a;}.cls-6{fill:#d4ffb6;}.cls-7{fill:#0d2b7f;}.cls-8{fill:#5c6c99;}.cls-9{fill:#3c7c0e;}.cls-10{fill:#7acc40;}</style></defs><g id="Layer_1-2"><g><path class="cls-7" d="m40.91,571.17l-32.52-21.98c-14.69-9.93-9-32.8,8.64-34.68l79.55-8.48-55.67,65.14Z"/><ellipse class="cls-7" cx="252.71" cy="549.43" rx="227.32" ry="59.72"/><ellipse class="cls-7" cx="353.21" cy="574.62" rx="167.81" ry="63.46"/><g><path class="cls-3" d="m245.74,38.39s16.03-32.7,34.41-33.9,33.9,15.29,41.8,30.33,2.04,53.78-5.1,62.19c0,0-47.15-54.03-71.11-58.62Z"/><path class="cls-8" d="m268.62,50.72s-8.32-32.47,7.93-44.29c0,0-21.14,6.19-30.8,34.55l22.88,9.74Z"/><path class="cls-3" d="m83,87.07s-24.48-11.72-43.21,1.49-29.5,49.23-16.99,69.73,39.34,30.1,39.34,30.1c0,0,3.87-67.05,20.86-101.32Z"/><path class="cls-8" d="m17.43,135.34s11.31,17.61,24.52,13.19,4.25-46.88,18.4-65.76l22.64,4.3s-24.78,72.07-20.86,101.32c0,0-51.36-21.66-44.71-53.06Z"/><path class="cls-2" d="m95.35,271.91s-60.94,54.43-62.97,97.26,27.86,48.42,79.13,54.47,80.03,12.49,89.2-3.97l15.51,26.34-46.82,83.32s29.46,22.59,41.48,27.86c0,0,44.5,52.99,135.44,39.82s85.78-23.48,102.39-35.5c0,0,53.25,25.77,80.16-51.53s26.15-160.4-84.8-155.15l-44.61-47.77s46.41-60.15,60.61-110.68-1.25-77.67-28.81-78.5-93.12,68.07-93.12,68.07c0,0,8.45-58.11-31.32-99.38S212.87,18.92,167.35,23.51s-83.52,59.71-91.87,83.1-31.66,123.48,19.87,165.3Z"/><path class="cls-4" d="m391.39,461.07s-6.12,7.17-7.53,19.09l31.06,4.41,2.22-20.6-25.74-2.91Z"/><path class="cls-4" d="m201.46,436.13s31.81,28.26,60.65,41.02l-51.22,80.05-41.48-27.86,32.06-93.2Z"/><path class="cls-4" d="m69.08,126.99s-2.56,120.77,98.11,165.98c0,0-68.64.16-90.66-44.08s-12.45-108.83-7.44-121.9Z"/><path class="cls-9" d="m9.05,432.02l41.88,21.45v36.24l20.37-32.65,57.81,14.53-28.15,103.03-56.76-17.37s-32.71-100.31-35.14-125.23Z"/><polygon class="cls-10" points="100.95 574.62 129.11 471.59 214.89 443.79 155.92 558.99 100.95 574.62"/><path class="cls-6" d="m50.93,489.71v-36.24l-41.88-21.45,35.4-25.27s36.92,12.31,62.43,16.21,84.43,14.14,93.84-3.29l14.18,24.12-85.78,27.8-57.81-14.53-20.37,32.65Z"/><path class="cls-10" d="m9.05,432.02s150.23,34.22,196.54-4.04l-4.88-8.3s-14.12,14.61-53.37,12.35-102.89-25.27-102.89-25.27l-35.4,25.27Z"/><path class="cls-3" d="m198.87,549.67s-6.83-52.41,28.47-83.43,101.13-30.11,118.98,4.11c0,0,94.98,8.76,109.34,52.77,11.77,36.06-21.66,62.3-87.69,70.39s-124.12-1.71-153.09-29.61l-16.02-14.23Z"/><path class="cls-8" d="m384.4,477.15c-9.78,49.86,17.63,63.38.99,83.59-11.16,13.56-52.74,24.68-94.41,13.87-41.66-10.8-37.01-54.65-32.03-67.59,4.98-12.94,3.14-29.88-8.96-35.5-12.1-5.61-16.09-10.46-16.09-10.46-2.29,1.61-4.48,3.33-6.57,5.16-35.3,31.02-28.47,83.43-28.47,83.43l16.02,14.23c28.97,27.9,87.06,37.7,153.09,29.61,66.02-8.09,99.45-34.33,87.69-70.39-.35-1.06-.76-2.1-1.19-3.13l-38.34-32.31c-10.4-4.54-21.5-7.97-31.72-10.52Z"/><path class="cls-3" d="m164.35,290.54s-49.61-3.1-68.99-18.63c0,0-39.73,34.1-56.1,71.85s-5.91,60.04,22.29,70.05,100.49,17.74,108.93,18.2,90.77-23.65-6.58-96.89c0,0,88.7-75.51,189.69-55.5l45.89,27.44s33.26-43.36,49.64-78.39,28.05-95.09-1.21-106.23-76.97,23.5-109.75,63.5c0,0-6.8,32.04-17.96,45,0,0-64.97,56.5-155.84,59.59Z"/><path class="cls-8" d="m34.39,361.09s6.49,28.29,37.1,34.32,102.71,43.09,137.62,11.34c0,0-4.83,28.63-56.85,22.09s-76.37-8.87-95.26-18.14-33.15-35.3-22.61-49.61Z"/><path class="cls-8" d="m152.27,290.69s-58.29,34.76-105,43.19c0,0,16.11-40.02,48.09-61.97,0,0,24.95,22.64,56.91,18.78Z"/><path class="cls-7" d="m167.19,292.97c-22.34,2.75-45.78-.97-65.38-12.38-16.58-9.56-29.05-25.52-35.83-43.29-5.48-13.97-7.93-29.1-8.7-44.03-1.97-40.8,6.83-82.79,28.56-117.72,20-32.58,54.14-56.6,93.23-57.39,26.71-.91,52.15,7.88,75.44,20.02,37.95,19.65,70.6,52.78,82.5,94.57,10.09,33.89,6.23,73.42-16.23,101.67-1.01,1.26-2.85,1.46-4.11.45-1.24-.99-1.45-2.79-.5-4.05,16.89-22.69,21.55-52.81,16.59-80.29-7.98-46.01-42-82.93-82.87-103.44-50.06-26.2-103-27.6-142.52,17.39-33.57,39.04-44.85,93.76-39.07,144.18.98,5.91,1.95,12.26,3.71,17.98.78,2.37,1.47,5.14,2.44,7.43,0,0,1.9,4.84,1.9,4.84,12.73,29.11,38.03,44.57,69.02,48.19,6.97.8,14.2,1.06,21.18.46,3.51-.26,4.1,4.84.65,5.42h0Z"/><path class="cls-7" d="m83.23,90.83c-26.6-9.87-48.04-3.08-57.41,25-12.08,33.38,5.71,57.23,36.88,69.43,1.58.5,2.44,2.24,1.84,3.79-.52,1.37-1.98,2.1-3.36,1.77-3.85-.93-7.32-2.15-10.91-3.66-10.71-4.55-20.44-11.21-27.72-20.63-14.79-19.2-12.19-44.27-1.49-64.75,11.2-20.91,32.01-27.99,54.25-21.04,2.78.86,5.49,1.88,8.11,3.14.9.43,1.71.83,2.68,1.37,1.52.84,2.06,2.75,1.22,4.27-.81,1.46-2.61,2.01-4.08,1.32h0Z"/><path class="cls-7" d="m243.22,38.83c7.49-30.85,32.49-49.82,62.52-31.88,26.95,16.97,32.12,55.89,18.74,83.06-1.68,3.42-3.74,6.65-6.12,9.65-2.48,2.95-6.95-.36-4.86-3.58,15.51-23.78,12.42-64.71-13.02-80.53-25.01-14.56-41.73,2.07-51.02,25.01-1.34,3.86-7.07,2.27-6.23-1.72h0Z"/><path class="cls-7" d="m99.12,275.83c-28.96,23.68-52.48,55.88-61.2,92.62-4.14,17.37,2.94,29.52,18.6,37.39,24.81,11.92,53.8,13.47,80.96,16.82,4.71.52,9.43,1.07,14.16,1.7,6.6.82,12.44,2.1,18.67,2.08,6.8-.11,13.9-1.64,19.85-4.93,14.84-8.43,19.44-25.05,13.63-40.69,0,0-.52-1.54-.52-1.54,0,0-.67-1.49-.67-1.49-.72-1.72-1.99-4.24-2.98-5.86-.45-.81-1.19-2.05-1.76-2.81-2.39-3.65-5.41-7.3-8.47-10.41-7.12-7.37-15.54-13.39-24.5-18.63-8.03-4.57-16.47-8.5-25.11-11.98-1.62-.61-2.43-2.45-1.78-4.06.63-1.56,2.38-2.32,3.95-1.75,8.99,3.33,17.86,7.08,26.37,11.68,14.83,8.2,29.21,19.09,38.3,33.74,21.66,34.8-1.54,70.93-41.89,68.27-19.21-2.38-37.46-3.98-56.63-6.24-23.29-3.26-50.89-6.83-69.52-22.78-10.71-9.28-14.9-23.33-12.55-37.13,5.9-31.56,23.42-59.86,45.75-82.33,6.98-6.85,14.26-13.31,22.37-18.82,4.81-3.02,9.46,3.72,4.98,7.15h0Z"/><path class="cls-7" d="m334.59,185.95c22.75-28.37,92.02-101.87,126.76-57.99,9.19,12.73,9.73,29.51,8.15,44.38-4,32.41-17.7,62.67-33.92,90.66-9.2,15.35-19.54,30.04-31.13,43.66-1.27,1.49-3.5,1.66-4.99.4-1.45-1.24-1.66-3.4-.49-4.88,25.49-32.9,46.47-70.34,56.97-110.73,4.18-17.62,8.13-41.99-2.71-57.52-23.95-31.22-80.2,22.64-99.14,41.04-4.94,4.92-9.87,10.03-14.53,15.17-2.8,3.04-7.52-.86-4.98-4.2h0Z"/><path class="cls-7" d="m203.54,417.53l15.25,23.31c.83,1.27.87,2.84.23,4.11.02.02-59.96,115.26-59.95,115.29-.42.83-1.17,1.42-2,1.67,0,0-54.93,18.64-54.93,18.64-.9.31-1.83.31-2.68.08-.24.1-54.96-18.7-55.23-18.68-1.02-.29-1.84-1.07-2.17-2.03-4.11-10.36-7.97-20.74-11.73-31.19-11.05-31.7-22.08-63.39-26.87-96.86-.29-2.06.67-4.1,2.38-5.11,0,0,38.66-23.3,38.66-23.3,1.49-.9,3.42-.42,4.31,1.07.84,1.39.46,3.17-.8,4.13,0,0-36.04,27.19-36.04,27.19,0,0,2.38-5.11,2.38-5.11,2.2,21.48,7.86,42.97,13.72,63.87,6.04,21.15,12.89,42.19,20.29,62.9,0,0-2.17-2.02-2.17-2.02,0,0,55.92,15.39,55.92,15.39,0,0-2.97,0-2.97,0,0,0,55.93-15.36,55.93-15.36,0,0-2,1.67-2,1.67,0,0,58.46-115.99,58.46-115.99,0,0,.21,4.16.21,4.16,0,0-14.97-23.49-14.97-23.49-2.71-4.46,3.72-8.67,6.72-4.34h0Z"/><path class="cls-7" d="m10.76,427.75l41.03,23.47c.66.38,1.04,1.05,1.08,1.75-.02.01,2.02,41.33,2,41.35,0,0-7.52-1.9-7.52-1.9,0,0,21.51-37.21,21.51-37.21.63-1.08,1.86-1.59,3.02-1.35,0,0,59.53,11.05,59.53,11.05l-3.1.12,86.03-24.83c1.62-.47,3.31.47,3.78,2.09.45,1.56-.41,3.19-1.91,3.73l-84.38,29.98c-1.03.39-2.12.41-3.1.12,0,0-58.12-16.96-58.12-16.96l3.02-1.35c-.02.07-19.26,38.43-19.28,38.49-1.91,3.79-7.7,2.25-7.49-1.96,0,0,2-41.32,2-41.32l1.08,1.78-42.87-19.92c-4.87-2.46-1.26-9.68,3.67-7.11h0Z"/><path class="cls-7" d="m133.93,471.58c-11.91,34.36-21.63,69.69-29.42,105.21-.45,2.17-2.57,3.56-4.74,3.12-2.37-.47-3.79-3.01-2.97-5.27,7.51-21.33,13.86-43.52,19.82-65.35,3.49-13.22,6.87-26.44,9.59-39.86,1.35-5.49,9.39-3.32,7.7,2.15h0Z"/><path class="cls-7" d="m350.56,274.62c37.63,11.69,73.75,41.04,93.07,75.34,1.87,3.34-2.58,6.62-5.21,3.8-5.57-6.29-11.34-13.2-17.28-19.18-10.97-11.31-22.96-21.6-35.64-30.92-7.89-5.67-16.04-10.97-24.44-15.84-4.22-2.41-8.58-4.8-12.92-6.95-3.54-1.86-1.46-7.27,2.42-6.24h0Z"/><path class="cls-7" d="m175.67,528.7c8.55,6.95,18.35,12.21,28.04,17.44,3.33,1.75,6.69,3.45,10.06,5.13,0,0,2.54,2.6,2.54,2.6,4.03,7.05,10.54,12.77,17.26,17.57,41.86,29.14,110.71,25.5,158.77,14.98,17.24-4.3,34.83-11.13,47.9-23.16,12.97-11.8,17.5-28.55,8.09-44.21-22.71-36.12-81.31-45.01-121.03-45.43-1.73-.02-3.12-1.43-3.1-3.17.02-1.65,1.33-2.99,2.95-3.09,18.75-1.06,37.75-.19,56.42,3.46,23.46,4.75,47.25,13.63,64.47,31.02,15.43,15.43,21.14,37.78,8.17,56.72-16.74,23.89-49,32.45-76.1,37.55-41.68,6.91-85.47,9.86-126.32-3.1-17.92-6-36-15.55-47.62-31.06-.37-.58-.95-1.33-1.3-2.01,0,0,2.54,2.6,2.54,2.6-3.26-2.09-6.5-4.2-9.72-6.37-9.75-6.75-19.66-13.47-27.92-22.1-3.3-3.98,2.16-9.03,5.91-5.39h0Z"/><path class="cls-3" d="m95.92,142.11c-9.96,31.38,11.44,71.35,45.21,63.73s33.77-47.39,22.88-74.62-50.11-45.75-68.09,10.89Z"/><path class="cls-3" d="m266.76,88.2c27.03,18.79,34.47,63.51,3.06,78.08-31.41,14.56-55.67-16.94-63.65-45.17-7.99-28.22,11.79-66.82,60.59-32.91Z"/><path class="cls-7" d="m125.03,155.91c-.49.09-1.01.07-1.51-.1-1.57-.53-2.42-2.23-1.89-3.8,2.14-6.41,7.6-11.18,14.23-12.45,4.33-.83,8.83-.1,12.66,2.06,1.44.81,1.96,2.64,1.15,4.08-.81,1.44-2.64,1.96-4.08,1.15-2.6-1.46-5.66-1.96-8.6-1.4-4.5.86-8.21,4.1-9.67,8.46-.36,1.07-1.25,1.8-2.28,2Z"/><path class="cls-7" d="m231.03,122.63c-.49.09-1.01.07-1.51-.1-1.57-.53-2.42-2.23-1.89-3.8,2.14-6.41,7.6-11.18,14.23-12.45,4.33-.83,8.83-.1,12.66,2.06,1.44.81,1.96,2.64,1.15,4.08-.81,1.44-2.64,1.96-4.08,1.15-2.6-1.46-5.66-1.96-8.6-1.4-4.5.86-8.21,4.1-9.67,8.46-.36,1.07-1.25,1.8-2.28,2Z"/><path class="cls-1" d="m198.63,173.32c-11.64,4.24-20.15,17.95-13.22,31.46s19.69,21.2,28.47,15.45,15.27-18.95,10.65-32.15-15.58-18.52-25.9-14.76Z"/><path class="cls-5" d="m198.63,173.32c-11.64,4.24-20.15,17.95-13.22,31.46.2.4.41.79.63,1.17,5.72-5.35,19.01-16.12,37.38-20.61-5.1-11.17-15.22-15.51-24.79-12.03Z"/><path class="cls-7" d="m192.27,212.12c7.34,9.86,20.45,11.53,27.58.51,4.86-7.83,4.26-18.26,1.72-26.89-2.59-7.41-9.08-11.3-16.87-10.42-7.92.88-15.61,6.18-18.29,13.8-2.85,8.02.9,16.6,5.87,23h0Zm-3.36,2.71c-6.21-7.43-10.66-17.62-7.44-27.36,3.16-9.73,12.69-16.49,22.71-17.41,10.08-.99,18.69,4.5,21.65,14.28,2.51,9.93,2.61,21.27-3.18,30.13-8.11,12.31-24.92,11.35-33.75.36h0Z"/><path class="cls-3" d="m415.39,477.98s-39.1-11.52-36.68-59.83,48.2-63.65,87.11-66.12,84.85,40.99,81.02,84.1-31.1,116.8-57.9,122.54-85.6,5.36-73.55-80.7Z"/><path class="cls-8" d="m455.66,523.11c-18.77-15.16,4.01-65.53-14.69-81.77-18.7-16.24-49.59,19.72-49.59,19.72,10.62,12.95,24.01,16.9,24.01,16.9-12.04,86.06,46.76,86.44,73.55,80.7,11.19-2.4,22.46-16.64,32.07-35.56-17.22,19.04-46.59,15.16-65.36,0Z"/><path class="cls-7" d="m422.17,356.8c37.31-14.2,82.34-9.38,108.9,22.74,25.83,31.56,23.31,76.72,11.29,113.45-7.13,20.91-17.46,41.09-32.08,57.81-5.46,5.61-11.97,10.31-19.18,13.4-3.51,1.45-7.46,2.89-11.19,3.56-1.08.21-2.76.61-3.85.7-6.44.9-13,.72-19.41-.39-14.02-2.51-27.03-10.07-36.11-21.06-9.79-11.84-14.38-27.72-13.63-42.81.36-10.04,2.78-19.77,6.26-28.91.66-1.72,2.58-2.59,4.3-1.93,1.63.62,2.49,2.37,2.03,4.02-2.96,9.73-5.08,20.17-4.46,30.36.69,16.67,8.44,32.42,22.42,41.83,13.7,9.18,30.8,11.6,46.37,6.03,5.93-2.32,11.62-5.61,16.21-10.07,0,0,2.3-2.24,2.3-2.24,1.05-1.14,2.1-2.52,3.14-3.68,5.95-7.7,11.25-15.95,15.74-24.65,21.67-41.95,33.72-104.84-6.12-139.69-17.29-15.23-41.07-20.83-63.74-18.62-9.1.8-18.37,2.61-26.97,5.65-3.63,1.4-5.81-3.92-2.22-5.47h0Z"/><path class="cls-7" d="m188.32,142.44c-9.78,5.01-8.05,11.65,2.45,13.52s11.9-20.87-2.45-13.52Z"/></g></g></g></svg>